<svg width="24" height="24" viewBox="0 0 24 24" fill="none" xmlns="http://www.w3.org/2000/svg">
<path fill-rule="evenodd" clip-rule="evenodd" d="M11.75 2.75C11.2645 2.75 10.8533 3.10801 10.7865 3.58891L9.99287 9.30318C9.95909 9.54636 9.80844 9.75761 9.58952 9.86875L3.98012 12.7166C3.68557 12.8661 3.5 13.1685 3.5 13.4988C3.5 14.0553 4.01141 14.4711 4.55616 14.3576L9.79703 13.2658C10.018 13.2197 10.248 13.2757 10.4232 13.4181C10.5983 13.5605 10.7 13.7743 10.7 14V18.5C10.7 18.7752 10.5492 19.0284 10.3072 19.1595L8.38513 20.2006L8.54292 21.0684L11.5591 20.2747C11.6842 20.2418 11.8158 20.2418 11.9409 20.2747L14.9906 21.0773L15.1903 20.1983L13.204 19.1654C12.9557 19.0363 12.8 18.7798 12.8 18.5V14C12.8 13.776 12.9002 13.5637 13.0731 13.4212C13.246 13.2787 13.4735 13.221 13.6934 13.2638L19.4593 14.3871C19.9987 14.4921 20.5 14.0791 20.5 13.5296C20.5 13.1914 20.3048 12.8836 19.9989 12.7394L13.9302 9.87839C13.7011 9.77039 13.542 9.55405 13.5071 9.30318L12.7135 3.58891C12.6467 3.10801 12.2355 2.75 11.75 2.75ZM15.3616 20.2874C15.3614 20.2873 15.3617 20.2874 15.3616 20.2874V20.2874ZM8.35272 20.0223C8.3527 20.0222 8.35275 20.0225 8.35272 20.0223V20.0223ZM9.30078 3.38256C9.47057 2.16009 10.5158 1.25 11.75 1.25C12.9842 1.25 14.0294 2.16008 14.1992 3.38256L14.937 8.69472L20.6385 11.3826C21.4697 11.7744 22 12.6107 22 13.5296C22 15.0226 20.638 16.1449 19.1725 15.8594L14.3 14.9102V18.0447L16.0536 18.9565C16.5579 19.2188 16.8218 19.7883 16.6958 20.3426L16.396 21.6619C16.2393 22.3512 15.5426 22.7736 14.8589 22.5937L11.75 21.7755L8.6634 22.5878C7.9589 22.7732 7.24576 22.3193 7.11544 21.6026L6.87692 20.2907C6.78024 19.759 7.03621 19.2253 7.5114 18.9679L9.2 18.0533V14.9224L4.86209 15.8261C3.38587 16.1336 2 15.0067 2 13.4988C2 12.6036 2.50288 11.7843 3.30108 11.3791L8.56104 8.70866L9.30078 3.38256Z" fill="#D6A100"/>
</svg>
