<svg width="24" height="24" viewBox="0 0 24 24" fill="none" xmlns="http://www.w3.org/2000/svg">
<path d="M18 3H19M18 6H19M18 9H19M18 16C18 19.3137 15.3137 22 12 22C8.68629 22 6 19.3137 6 16C6 13.7792 7.2066 11.8401 9 10.8027V5C9 3.34315 10.3431 2 12 2C13.6569 2 15 3.34315 15 5V10.8027C16.7934 11.8401 18 13.7792 18 16ZM14.5 16C14.5 17.3807 13.3807 18.5 12 18.5C10.6193 18.5 9.5 17.3807 9.5 16C9.5 14.6193 10.6193 13.5 12 13.5C13.3807 13.5 14.5 14.6193 14.5 16Z" stroke="#1339FF" stroke-width="1.5" stroke-linecap="round" stroke-linejoin="round"/>
</svg>
