<svg width="24" height="24" viewBox="0 0 24 24" fill="none" xmlns="http://www.w3.org/2000/svg">
<path d="M12 4.83718C10.8091 3.72555 9.88889 3.05469 9.88889 3.05469C9.88889 3.05469 2.5 8.4415 2.5 13.9797C2.5 19.5179 6.72222 20.9991 9.88889 20.9991C12.4378 20.9991 15.6705 20.0395 16.8349 16.7769M8.83333 17.3047C7.47619 17.3047 5.66667 16.6365 5.66667 14.138M21.5 10.0089C21.5 13.2667 19.0873 14.138 17.2778 14.138C15.4683 14.138 13.0556 13.2667 13.0556 10.0089C13.0556 9.07948 13.3992 8.15727 13.8905 7.31383C15.1211 5.20101 17.2778 3.58247 17.2778 3.58247C17.2778 3.58247 21.5 6.75118 21.5 10.0089Z" stroke="#1339FF" stroke-width="1.5" stroke-linecap="round" stroke-linejoin="round"/>
</svg>
