<svg width="89" height="88" viewBox="0 0 89 88" fill="none" xmlns="http://www.w3.org/2000/svg">
<path opacity="0.25" d="M13.335 27.4998C13.335 20.4122 19.0807 14.6665 26.1684 14.6665H66.5017C73.5894 14.6665 79.335 20.4122 79.335 27.4998V44.9809C79.335 47.9845 79.0063 50.9791 78.3547 53.9112C76.7851 60.9744 70.5204 65.9998 63.2848 65.9998H15.2818C10.9175 65.9998 7.99821 61.5077 9.77073 57.5195C12.1208 52.2319 13.335 46.51 13.335 40.7237V27.4998Z" fill="#DCE0E4"/>
<path d="M79.3334 44V64.1667C79.3334 71.2543 73.5877 77 66.5 77H24.3334C18.2582 77 13.3334 72.0751 13.3334 66" stroke="#A6A9AC" stroke-width="1.5"/>
<path d="M78.3547 53.9112L77.6226 53.7485L78.3547 53.9112ZM9.77073 57.5195L10.4561 57.8241L9.77073 57.5195ZM26.1684 14.6665V15.4165H66.5017V14.6665V13.9165H26.1684V14.6665ZM63.2848 65.9998V65.2498H15.2818V65.9998V66.7498H63.2848V65.9998ZM13.335 40.7237H14.085V27.4998H13.335H12.585V40.7237H13.335ZM79.335 44.9809H78.585C78.585 47.9298 78.2623 50.8698 77.6226 53.7485L78.3547 53.9112L79.0869 54.0739C79.7503 51.0884 80.085 48.0392 80.085 44.9809H79.335ZM13.335 40.7237H12.585C12.585 46.4051 11.3928 52.0232 9.08537 57.2149L9.77073 57.5195L10.4561 57.8241C12.8487 52.4407 14.085 46.615 14.085 40.7237H13.335ZM15.2818 65.9998V65.2498C11.4603 65.2498 8.904 61.3163 10.4561 57.8241L9.77073 57.5195L9.08537 57.2149C7.09242 61.6991 10.3748 66.7498 15.2818 66.7498V65.9998ZM63.2848 65.9998V66.7498C70.8719 66.7498 77.441 61.4803 79.0869 54.0739L78.3547 53.9112L77.6226 53.7485C76.1292 60.4686 70.1689 65.2498 63.2848 65.2498V65.9998ZM66.5017 14.6665V15.4165C73.1751 15.4165 78.585 20.8264 78.585 27.4998H79.335H80.085C80.085 19.998 74.0036 13.9165 66.5017 13.9165V14.6665ZM26.1684 14.6665V13.9165C18.6665 13.9165 12.585 19.998 12.585 27.4998H13.335H14.085C14.085 20.8264 19.4949 15.4165 26.1684 15.4165V14.6665ZM79.335 27.4998H78.585V44.9809H79.335H80.085V27.4998H79.335Z" fill="#A6A9AC"/>
<path d="M33.5 11V18.3333M59.1667 11V18.3333" stroke="#A6A9AC" stroke-width="1.5" stroke-linecap="round" stroke-linejoin="round"/>
<path d="M35.3334 51.3333C32.2958 51.3333 29.8334 48.8709 29.8334 45.8333V38.5C29.8334 35.4624 32.2958 33 35.3334 33C38.3709 33 40.8334 35.4624 40.8334 38.5V45.8333C40.8334 48.8709 38.3709 51.3333 35.3334 51.3333Z" stroke="#A6A9AC" stroke-width="1.5" stroke-linecap="round" stroke-linejoin="round"/>
<path d="M53.6667 51.3333L61 33H50" stroke="#A6A9AC" stroke-width="1.5" stroke-linecap="round" stroke-linejoin="round"/>
</svg>
