<svg width="12" height="12" viewBox="0 0 12 12" fill="none" xmlns="http://www.w3.org/2000/svg">
<path d="M5.52497 1.02386H4.57259C2.19164 1.02386 1.23926 1.97625 1.23926 4.3572V7.21434C1.23926 9.59529 2.19164 10.5477 4.57259 10.5477H7.42973C9.81069 10.5477 10.7631 9.59529 10.7631 7.21434V6.26196" stroke="#1339FF" stroke-width="1.07143" stroke-linecap="round" stroke-linejoin="round"/>
<path d="M7.92501 1.50958L4.17263 5.26196C4.02977 5.40482 3.88691 5.68577 3.85834 5.89054L3.65358 7.32387C3.57739 7.84292 3.94406 8.20482 4.4631 8.13339L5.89644 7.92863C6.09644 7.90006 6.37739 7.7572 6.52501 7.61434L10.2774 3.86196C10.925 3.21434 11.2298 2.46196 10.2774 1.50958C9.32501 0.557202 8.57263 0.861964 7.92501 1.50958Z" stroke="#1339FF" stroke-width="1.07143" stroke-miterlimit="10" stroke-linecap="round" stroke-linejoin="round"/>
<path d="M7.38672 2.04755C7.70577 3.18564 8.59624 4.07612 9.7391 4.39993" stroke="#1339FF" stroke-width="1.07143" stroke-miterlimit="10" stroke-linecap="round" stroke-linejoin="round"/>
</svg>
