<svg width="789" height="693" viewBox="0 0 789 693" fill="none" xmlns="http://www.w3.org/2000/svg">
<g id="Enable Push Notifications">
<path id="Fill 1" fill-rule="evenodd" clip-rule="evenodd" d="M502.205 466.635L499.904 475.722L272.765 418.224L275.063 409.137C293.237 413.736 307.334 396.231 309.614 387.237L322.721 335.448C333.101 297.759 367.421 271.68 406.517 271.776C409.865 259.275 422.717 251.859 435.215 255.21C447.716 258.561 455.135 271.41 451.781 283.911C486.068 303.048 503.642 342.495 494.933 380.781L482.24 430.935C479.546 441.564 493.121 464.334 502.205 466.635Z" fill="#F1F2F7"/>
<path id="Fill 3" fill-rule="evenodd" clip-rule="evenodd" d="M345.51 446.306C347.691 469.496 368.256 486.53 391.446 484.352C404.076 483.167 415.504 476.357 422.559 465.809L345.51 446.306Z" fill="#CDFF1F"/>
<path id="Stroke 5" fill-rule="evenodd" clip-rule="evenodd" d="M714.393 378.63C714.393 550.593 574.986 690 403.023 690C231.06 690 91.656 550.593 91.656 378.63C91.656 206.667 231.06 67.2598 403.023 67.2598C574.986 67.2598 714.393 206.667 714.393 378.63Z" stroke="#E9EAEC" stroke-dasharray="5.02 5.02"/>
<path id="Stroke 7" fill-rule="evenodd" clip-rule="evenodd" d="M634.249 378.629C634.249 506.33 530.725 609.854 403.024 609.854C275.32 609.854 171.802 506.33 171.802 378.629C171.802 250.928 275.32 147.404 403.024 147.404C530.725 147.404 634.249 250.928 634.249 378.629Z" stroke="#E9EAEC" stroke-dasharray="5.05 5.05"/>
<path id="Fill 9" fill-rule="evenodd" clip-rule="evenodd" d="M622.079 165.522C626.567 165.522 630.197 169.149 630.197 173.64C630.197 178.131 626.567 181.758 622.079 181.758C617.588 181.758 613.958 178.131 613.958 173.64C613.958 169.149 617.588 165.522 622.079 165.522ZM646.433 165.522C650.924 165.522 654.551 169.149 654.551 173.64C654.551 178.131 650.924 181.758 646.433 181.758C641.942 181.758 638.315 178.131 638.315 173.64C638.315 169.149 641.942 165.522 646.433 165.522ZM670.787 165.522C675.278 165.522 678.905 169.149 678.905 173.64C678.905 178.131 675.278 181.758 670.787 181.758C666.296 181.758 662.669 178.131 662.669 173.64C662.669 169.149 666.296 165.522 670.787 165.522ZM612.995 218.292H651.737C655.391 218.292 655.391 218.319 657.14 219.612C658.892 220.905 678.884 234.528 678.884 234.528V218.292H679.82C690.524 218.292 699.176 210.225 699.176 200.178V147.18C699.176 137.133 690.503 128.988 679.82 128.988H612.995C602.315 128.988 593.639 137.133 593.639 147.18V200.178C593.639 210.225 602.315 218.292 612.995 218.292Z" fill="#1339FF"/>
<path id="Fill 11" fill-rule="evenodd" clip-rule="evenodd" d="M144.079 259.065C144.079 262.002 141.709 264.372 138.769 264.372C135.835 264.372 133.465 262.002 133.465 259.065C133.465 256.128 135.835 253.755 138.769 253.755C141.709 253.755 144.079 256.128 144.079 259.065ZM128.155 259.065C128.155 262.002 125.782 264.372 122.848 264.372C119.911 264.372 117.538 262.002 117.538 259.065C117.538 256.128 119.911 253.755 122.848 253.755C125.782 253.755 128.155 256.128 128.155 259.065ZM112.231 259.065C112.231 262.002 109.858 264.372 106.921 264.372C103.987 264.372 101.614 262.002 101.614 259.065C101.614 256.128 103.987 253.755 106.921 253.755C109.858 253.755 112.231 256.128 112.231 259.065ZM157.369 276.417V241.764C157.369 235.194 151.693 229.869 144.712 229.869H101.017C94.0335 229.869 88.3605 235.194 88.3605 241.764V276.417C88.3605 282.984 94.0185 288.258 101.017 288.258H101.632V298.878C101.632 298.878 114.703 289.968 115.846 289.122C116.992 288.276 116.992 288.258 119.38 288.258H144.712C151.693 288.258 157.369 282.984 157.369 276.417Z" fill="#1339FF"/>
<path id="Fill 13" fill-rule="evenodd" clip-rule="evenodd" d="M345.528 446.358C347.709 469.548 368.274 486.582 391.464 484.404C404.094 483.219 415.521 476.409 422.577 465.861L345.528 446.358Z" fill="#1339FF"/>
<path id="Fill 15" fill-rule="evenodd" clip-rule="evenodd" d="M528.666 307.025C533.955 313.388 537.927 320.882 540.627 328.826C543.378 336.773 544.722 345.215 544.86 353.663C544.86 357.89 544.557 362.111 544.011 366.296C543.291 370.46 542.46 374.594 541.152 378.599C538.623 386.612 534.801 394.211 529.593 400.679C529.368 400.958 528.966 401 528.687 400.778C528.471 400.601 528.399 400.313 528.483 400.061C531.195 392.342 533.442 384.728 534.951 377.003C535.23 375.053 535.614 373.133 535.938 371.204C536.16 369.257 536.454 367.325 536.622 365.381C536.748 363.434 537 361.499 537.081 359.552C537.111 357.602 537.204 355.655 537.195 353.708C537.24 345.911 536.37 338.126 534.855 330.398C533.298 322.664 530.955 315.047 528.141 307.328C528.084 307.169 528.165 306.992 528.324 306.935C528.45 306.887 528.585 306.929 528.666 307.025Z" fill="#CDFF1F"/>
<path id="Fill 17" fill-rule="evenodd" clip-rule="evenodd" d="M558.455 309.727C563.561 315.61 567.407 322.588 570.086 329.995C572.771 337.411 574.322 345.289 574.598 353.215C574.898 361.138 573.932 369.103 571.814 376.69C569.699 384.274 566.402 391.522 561.752 397.768C561.722 397.807 561.665 397.816 561.629 397.789C561.599 397.765 561.587 397.726 561.596 397.693C563.522 390.175 565.136 382.861 566.114 375.508C567.092 368.158 567.413 360.811 567.14 353.491C566.84 346.174 565.955 338.881 564.398 331.642C562.847 324.394 560.654 317.242 558.155 309.901C558.125 309.808 558.173 309.709 558.266 309.676C558.335 309.652 558.41 309.673 558.455 309.727Z" fill="#CDFF1F"/>
<path id="Fill 19" fill-rule="evenodd" clip-rule="evenodd" d="M286.175 347.27C284.555 339.203 284.537 330.776 285.821 322.538C287.063 314.279 289.733 306.227 293.441 298.706C297.239 291.23 302.093 284.273 307.955 278.321C313.775 272.348 320.525 267.287 327.971 263.753C328.106 263.69 328.262 263.747 328.325 263.879C328.376 263.987 328.349 264.113 328.262 264.191C322.205 269.69 316.628 275.423 311.699 281.63C306.806 287.849 302.477 294.458 298.979 301.493C295.385 308.483 292.643 315.89 290.558 323.531C288.506 331.19 287.24 339.095 286.433 347.258C286.424 347.327 286.361 347.381 286.289 347.375C286.232 347.369 286.187 347.324 286.175 347.27Z" fill="#CDFF1F"/>
<path id="Fill 21" fill-rule="evenodd" clip-rule="evenodd" d="M260.746 331.323C259.213 323.748 259.186 315.855 260.299 308.127C261.448 300.399 263.743 292.806 267.13 285.735C270.481 278.652 274.807 272.025 280.012 266.22C285.193 260.406 291.181 255.324 297.853 251.484C292.405 256.908 287.401 262.566 283.036 268.65C278.686 274.74 274.903 281.163 271.837 287.919C268.801 294.684 266.365 301.71 264.628 308.961C262.843 316.209 261.772 323.646 261.001 331.311C260.992 331.38 260.932 331.431 260.857 331.425C260.803 331.419 260.755 331.377 260.746 331.323Z" fill="#CDFF1F"/>
<path id="Fill 23" fill-rule="evenodd" clip-rule="evenodd" d="M502.222 466.688C502.222 466.688 488.788 461.468 481.726 454.019C471.892 443.648 472.54 432.332 479.188 410.492C487.009 384.485 486.796 357.089 483.784 344.531C473.293 300.773 451.798 283.964 451.798 283.964C486.085 303.101 503.659 342.548 494.95 380.834L482.257 430.988C480.031 438.398 493.138 464.387 502.222 466.688L499.921 475.775L502.222 466.688Z" fill="#D8DBEA"/>
<path id="Stroke 25" d="M32.8337 420.552L27.0527 420.375" stroke="#D2D8DF" stroke-linecap="round"/>
<path id="Stroke 27" d="M28.6865 409.591L24.5405 413.464" stroke="#D2D8DF" stroke-linecap="round"/>
<path id="Stroke 29" d="M17.8805 404.585L17.7935 410.237" stroke="#D2D8DF" stroke-linecap="round"/>
<path id="Stroke 31" d="M6.74304 408.466L10.769 412.588" stroke="#D2D8DF" stroke-linecap="round"/>
<path id="Stroke 33" d="M1.79919 418.961L7.57719 419.138" stroke="#D2D8DF" stroke-linecap="round"/>
<path id="Stroke 35" d="M5.94507 429.923L10.0941 426.05" stroke="#D2D8DF" stroke-linecap="round"/>
<path id="Stroke 37" d="M16.7523 434.93L16.8393 429.278" stroke="#D2D8DF" stroke-linecap="round"/>
<path id="Stroke 39" d="M27.8898 431.048L23.8638 426.926" stroke="#D2D8DF" stroke-linecap="round"/>
<path id="Stroke 41" d="M786.742 339.971L784.201 342.722" stroke="#D2D8DF" stroke-linecap="round"/>
<path id="Stroke 43" d="M774.812 342.362L776.729 344.129" stroke="#D2D8DF" stroke-linecap="round"/>
<path id="Stroke 45" d="M772.878 354.555L775.419 351.804" stroke="#D2D8DF" stroke-linecap="round"/>
<path id="Stroke 47" d="M784.805 352.165L782.891 350.398" stroke="#D2D8DF" stroke-linecap="round"/>
<path id="Stroke 49" d="M554.01 16.6445L547.863 16.4795" stroke="#D2D8DF" stroke-linecap="round"/>
<path id="Stroke 51" d="M538.105 1.80469L538.012 7.05769" stroke="#D2D8DF" stroke-linecap="round"/>
<path id="Stroke 53" d="M520.999 15.167L527.146 15.329" stroke="#D2D8DF" stroke-linecap="round"/>
<path id="Stroke 55" d="M536.904 30.0074L536.997 24.7544" stroke="#D2D8DF" stroke-linecap="round"/>
<path id="Fill 57" fill-rule="evenodd" clip-rule="evenodd" d="M98.8102 583.824C94.3882 585.147 87.0232 591.645 84.5032 599.349C84.0802 592.191 79.5352 583.194 74.5342 581.898C80.6362 579.741 87.2452 571.812 89.0032 565.131C88.6852 572.133 95.0422 582.3 98.8102 583.824Z" fill="#EBECEF"/>
<path id="Fill 59" fill-rule="evenodd" clip-rule="evenodd" d="M202.378 44.7823C198.967 45.3853 192.922 49.5853 190.378 55.1053C190.681 49.7383 188.074 42.6433 184.462 41.2453C189.193 40.1653 194.803 34.8313 196.69 30.0073C195.847 35.1973 199.702 43.3213 202.378 44.7823Z" fill="#EBECEF"/>
<path id="Fill 61" fill-rule="evenodd" clip-rule="evenodd" d="M654.478 83.7557C649.921 83.6567 646.309 79.8857 646.411 75.3317C646.51 70.7777 650.281 67.1657 654.832 67.2647C659.389 67.3637 663.001 71.1347 662.902 75.6887C662.8 80.2427 659.032 83.8547 654.478 83.7557Z" fill="#D1D9E0"/>
<path id="Fill 63" fill-rule="evenodd" clip-rule="evenodd" d="M654.499 624.212C650.536 624.128 647.392 620.843 647.476 616.88C647.56 612.914 650.845 609.77 654.811 609.854C658.777 609.941 661.921 613.223 661.834 617.189C661.747 621.152 658.465 624.299 654.499 624.212Z" fill="#EBECEF"/>
<path id="Stroke 65" fill-rule="evenodd" clip-rule="evenodd" d="M58.2661 193.214C55.8121 193.16 53.8651 191.129 53.9191 188.672C53.9701 186.218 56.0041 184.274 58.4581 184.325C60.9121 184.379 62.8591 186.41 62.8081 188.864C62.7541 191.321 60.7201 193.268 58.2661 193.214Z" stroke="#D2D8DF" stroke-linecap="round"/>
</g>
</svg>
