<svg width="789" height="693" viewBox="0 0 789 693" fill="none" xmlns="http://www.w3.org/2000/svg">
<g id="Enabble Location">
<path id="Stroke 1" fill-rule="evenodd" clip-rule="evenodd" d="M714.394 378.63C714.394 550.593 574.987 690 403.024 690C231.061 690 91.6567 550.593 91.6567 378.63C91.6567 206.667 231.061 67.2598 403.024 67.2598C574.987 67.2598 714.394 206.667 714.394 378.63Z" stroke="#E9EAEC" stroke-dasharray="5.02 5.02"/>
<path id="Stroke 3" fill-rule="evenodd" clip-rule="evenodd" d="M634.249 378.629C634.249 506.33 530.725 609.854 403.024 609.854C275.32 609.854 171.802 506.33 171.802 378.629C171.802 250.928 275.32 147.404 403.024 147.404C530.725 147.404 634.249 250.928 634.249 378.629Z" stroke="#E9EAEC" stroke-dasharray="5.05 5.05"/>
<path id="Stroke 5" d="M32.8337 420.552L27.0527 420.375" stroke="#D2D8DF" stroke-linecap="round"/>
<path id="Stroke 7" d="M28.6865 409.591L24.5405 413.464" stroke="#D2D8DF" stroke-linecap="round"/>
<path id="Stroke 9" d="M17.8805 404.585L17.7935 410.237" stroke="#D2D8DF" stroke-linecap="round"/>
<path id="Stroke 11" d="M6.74341 408.466L10.7694 412.588" stroke="#D2D8DF" stroke-linecap="round"/>
<path id="Stroke 13" d="M1.79956 418.961L7.57756 419.138" stroke="#D2D8DF" stroke-linecap="round"/>
<path id="Stroke 15" d="M5.94507 429.923L10.0941 426.05" stroke="#D2D8DF" stroke-linecap="round"/>
<path id="Stroke 17" d="M16.7527 434.93L16.8397 429.278" stroke="#D2D8DF" stroke-linecap="round"/>
<path id="Stroke 19" d="M27.8898 431.048L23.8638 426.926" stroke="#D2D8DF" stroke-linecap="round"/>
<path id="Stroke 21" d="M786.742 339.971L784.201 342.722" stroke="#D2D8DF" stroke-linecap="round"/>
<path id="Stroke 23" d="M774.813 342.362L776.73 344.129" stroke="#D2D8DF" stroke-linecap="round"/>
<path id="Stroke 25" d="M772.879 354.555L775.42 351.804" stroke="#D2D8DF" stroke-linecap="round"/>
<path id="Stroke 27" d="M784.806 352.165L782.892 350.398" stroke="#D2D8DF" stroke-linecap="round"/>
<path id="Stroke 29" d="M554.011 16.6445L547.864 16.4795" stroke="#D2D8DF" stroke-linecap="round"/>
<path id="Stroke 31" d="M538.105 1.80469L538.012 7.05769" stroke="#D2D8DF" stroke-linecap="round"/>
<path id="Stroke 33" d="M520.999 15.167L527.146 15.329" stroke="#D2D8DF" stroke-linecap="round"/>
<path id="Stroke 35" d="M536.904 30.0074L536.997 24.7544" stroke="#D2D8DF" stroke-linecap="round"/>
<path id="Fill 37" fill-rule="evenodd" clip-rule="evenodd" d="M98.8109 583.824C94.3889 585.147 87.0239 591.645 84.5039 599.349C84.0809 592.191 79.5359 583.194 74.5349 581.898C80.6369 579.741 87.2459 571.812 89.0039 565.131C88.6859 572.133 95.0429 582.3 98.8109 583.824Z" fill="#EBECEF"/>
<path id="Fill 39" fill-rule="evenodd" clip-rule="evenodd" d="M202.378 44.7823C198.967 45.3853 192.922 49.5853 190.378 55.1053C190.681 49.7383 188.074 42.6433 184.462 41.2453C189.193 40.1653 194.803 34.8313 196.69 30.0073C195.847 35.1973 199.702 43.3213 202.378 44.7823Z" fill="#EBECEF"/>
<path id="Fill 41" fill-rule="evenodd" clip-rule="evenodd" d="M654.478 83.7557C649.921 83.6567 646.309 79.8857 646.411 75.3317C646.51 70.7777 650.281 67.1657 654.832 67.2647C659.389 67.3637 663.001 71.1347 662.902 75.6887C662.8 80.2427 659.032 83.8547 654.478 83.7557Z" fill="#D1D9E0"/>
<path id="Fill 43" fill-rule="evenodd" clip-rule="evenodd" d="M654.499 624.212C650.536 624.128 647.392 620.843 647.476 616.88C647.56 612.914 650.845 609.77 654.811 609.854C658.777 609.941 661.921 613.223 661.834 617.189C661.747 621.152 658.465 624.299 654.499 624.212Z" fill="#EBECEF"/>
<path id="Stroke 45" fill-rule="evenodd" clip-rule="evenodd" d="M58.2668 193.214C55.8128 193.16 53.8658 191.129 53.9198 188.672C53.9708 186.218 56.0048 184.274 58.4588 184.325C60.9128 184.379 62.8598 186.41 62.8088 188.864C62.7548 191.321 60.7208 193.268 58.2668 193.214Z" stroke="#D2D8DF" stroke-linecap="round"/>
<path id="Fill 47" fill-rule="evenodd" clip-rule="evenodd" d="M536.998 176.006C536.998 191.801 524.191 204.605 508.399 204.605C492.601 204.605 479.8 191.801 479.8 176.006C479.8 160.211 492.601 147.404 508.399 147.404C524.191 147.404 536.998 160.211 536.998 176.006Z" fill="white"/>
<path id="Fill 49" fill-rule="evenodd" clip-rule="evenodd" d="M220.492 553.969L177.886 290.971C177.253 287.077 179.044 283.189 182.41 281.137L294.943 212.446C297.157 211.096 299.815 210.685 302.329 211.306L441.142 245.638C443.743 246.28 446.494 245.818 448.744 244.363L541.606 184.276C547.066 180.742 554.392 183.475 556.198 189.724L634.33 459.49C635.473 463.441 634.003 467.683 630.664 470.08L545.17 531.349C542.851 533.008 539.926 533.566 537.163 532.876L374.548 492.223C372.274 491.656 369.868 491.929 367.783 492.994L234.487 561.061C228.625 564.052 221.548 560.467 220.492 553.969Z" fill="#F1F2F7"/>
<path id="Fill 51" fill-rule="evenodd" clip-rule="evenodd" d="M508.753 198.256C495.229 198.256 484.267 187.291 484.267 173.767C484.267 160.243 495.229 149.278 508.753 149.278C522.28 149.278 533.242 160.243 533.242 173.767C533.242 187.291 522.28 198.256 508.753 198.256ZM508.753 122.068C480.994 121.282 457.852 143.149 457.066 170.908C457.045 171.697 457.042 172.489 457.057 173.278C457.057 216.16 504.943 255.832 506.959 257.464C507.976 258.337 509.476 258.337 510.496 257.464C512.617 255.562 560.452 211.915 560.452 173.278C560.974 145.51 538.891 122.578 511.123 122.059C510.334 122.044 509.545 122.047 508.753 122.068Z" fill="#CDFF1F"/>
<path id="Stroke 53" d="M315.894 434.627L398.778 456.251C407.499 458.525 414.36 448.748 409.236 441.335C380.625 399.959 327.075 314.204 377.46 317.804C443.766 322.541 431.136 382.421 445.344 390.371C459.555 398.318 544.803 380.564 547.959 349.187C551.118 317.804 540.069 302.018 517.965 292.547C495.864 283.073 506.958 257.465 506.958 257.465" stroke="#0E1D25" stroke-width="2" stroke-dasharray="7"/>
<path id="Fill 55" fill-rule="evenodd" clip-rule="evenodd" d="M209.895 325.893L204.222 303.834C202.968 298.962 205.128 293.853 209.499 291.354L278.637 251.847C279.183 251.535 279.75 251.271 280.338 251.055L303.255 242.67C305.238 241.944 307.389 241.794 309.456 242.241L359.742 253.122C363.771 253.992 366.99 257.01 368.121 260.97C370.278 268.518 364.185 275.874 356.37 275.163L334.248 273.153C327.171 272.508 321.3 278.55 322.146 285.606L324.183 302.583C324.801 307.731 321.795 312.627 316.926 314.406L270.444 331.383C267.168 332.577 263.526 332.175 260.589 330.297L247.842 322.143C242.637 318.81 235.716 320.34 232.398 325.554L230.136 329.109C224.889 337.353 212.331 335.358 209.895 325.893Z" fill="#D8DBEA"/>
<path id="Fill 57" fill-rule="evenodd" clip-rule="evenodd" d="M515.474 425.727L531.344 493.746C533.168 501.564 542.405 504.963 548.861 500.19L601.7 461.133C605.396 458.406 607.04 453.693 605.849 449.256L593.453 403.056C591.815 396.948 585.44 393.417 579.398 395.268L523.082 412.509C517.463 414.228 514.139 420.006 515.474 425.727Z" fill="#D8DBEA"/>
<path id="Fill 59" fill-rule="evenodd" clip-rule="evenodd" d="M450.279 448.253L486.522 450.575C491.268 450.881 495.303 454.157 496.572 458.744L503.616 484.19C505.884 492.377 498.546 499.997 490.278 498.038L454.404 489.542C450.816 488.693 447.876 486.125 446.553 482.684L439.14 463.409C436.218 455.807 442.152 447.734 450.279 448.253Z" fill="#D8DBEA"/>
<path id="Fill 61" fill-rule="evenodd" clip-rule="evenodd" d="M282.54 431.691C267.897 431.691 256.026 419.82 256.026 405.18C256.026 390.537 267.897 378.666 282.54 378.666C297.183 378.666 309.051 390.537 309.051 405.18C309.051 419.82 297.183 431.691 282.54 431.691ZM282.54 349.209C252.483 348.357 227.433 372.03 226.581 402.084C226.557 402.939 226.554 403.794 226.569 404.649C226.569 451.074 278.415 494.025 280.596 495.792C281.697 496.737 283.323 496.737 284.424 495.792C286.725 493.731 338.508 446.481 338.508 404.649C339.075 374.589 315.165 349.761 285.102 349.197C284.247 349.182 283.392 349.185 282.54 349.209Z" fill="#1339FF"/>
</g>
</svg>
