<svg width="21" height="15" viewBox="0 0 21 15" fill="none" xmlns="http://www.w3.org/2000/svg">
<path d="M6.19062 14.8523C5.25804 14.8523 4.40776 14.6946 3.63976 14.3792C2.88547 14.05 2.23404 13.5769 1.68547 12.9598C1.15062 12.3289 0.73233 11.554 0.430616 10.6352C0.142616 9.70261 -0.00138387 8.6329 -0.00138387 7.42604C-0.00138387 6.21918 0.142616 5.15633 0.430616 4.23747C0.73233 3.3049 1.15062 2.53004 1.68547 1.9129C2.23404 1.28204 2.88547 0.808897 3.63976 0.493468C4.40776 0.164325 5.25804 -0.000246127 6.19062 -0.000246127C7.12319 -0.000246127 7.96662 0.164325 8.7209 0.493468C9.4889 0.808897 10.1403 1.28204 10.6752 1.9129C11.2238 2.53004 11.642 3.3049 11.93 4.23747C12.2318 5.15633 12.3826 6.21918 12.3826 7.42604C12.3826 8.6329 12.2318 9.70261 11.93 10.6352C11.642 11.554 11.2238 12.3289 10.6752 12.9598C10.1403 13.5769 9.4889 14.05 8.7209 14.3792C7.96662 14.6946 7.12319 14.8523 6.19062 14.8523ZM6.19062 12.7746C6.73919 12.7746 7.23976 12.6786 7.69233 12.4866C8.15862 12.2946 8.54947 12.0203 8.8649 11.6638C9.19405 11.2935 9.44776 10.8478 9.62604 10.3266C9.80433 9.80547 9.89347 9.21575 9.89347 8.55747V6.29461C9.89347 5.63633 9.80433 5.04661 9.62604 4.52547C9.44776 4.00433 9.19405 3.56547 8.8649 3.2089C8.54947 2.83861 8.15862 2.55747 7.69233 2.36547C7.23976 2.17347 6.73919 2.07747 6.19062 2.07747C5.62833 2.07747 5.1209 2.17347 4.66833 2.36547C4.21576 2.55747 3.8249 2.83861 3.49576 3.2089C3.18033 3.56547 2.93347 4.00433 2.75519 4.52547C2.5769 5.04661 2.48776 5.63633 2.48776 6.29461V8.55747C2.48776 9.21575 2.5769 9.80547 2.75519 10.3266C2.93347 10.8478 3.18033 11.2935 3.49576 11.6638C3.8249 12.0203 4.21576 12.2946 4.66833 12.4866C5.1209 12.6786 5.62833 12.7746 6.19062 12.7746ZM20.6094 7.83747H14.87V6.39747L17.3591 4.42261C17.8117 4.06604 18.1408 3.75061 18.3466 3.47633C18.566 3.20204 18.6757 2.89347 18.6757 2.55061V2.46833C18.6757 2.13918 18.566 1.89233 18.3466 1.72775C18.1408 1.56318 17.8666 1.4809 17.5237 1.4809C17.1123 1.4809 16.8037 1.58375 16.598 1.78947C16.3923 1.99518 16.2346 2.25575 16.1248 2.57118L14.7054 2.03633C14.8974 1.51518 15.2266 1.06947 15.6928 0.699182C16.1591 0.315182 16.8174 0.123182 17.6677 0.123182C18.5454 0.123182 19.2243 0.335754 19.7043 0.760897C20.1843 1.18604 20.4243 1.73461 20.4243 2.40661C20.4243 2.72204 20.3694 3.0169 20.2597 3.29118C20.15 3.56547 19.9991 3.81918 19.8071 4.05233C19.6151 4.28547 19.3888 4.51175 19.1283 4.73118C18.8677 4.9369 18.5934 5.14261 18.3054 5.34833L16.6391 6.5209H20.6094V7.83747Z" fill="#1339FF"/>
</svg>
