<svg width="21" height="22" viewBox="0 0 21 22" fill="none" xmlns="http://www.w3.org/2000/svg">
<path fill-rule="evenodd" clip-rule="evenodd" d="M1.78516 9.89459C1.78516 5.25839 5.54355 1.5 10.1798 1.5C14.816 1.5 18.5743 5.25839 18.5743 9.89459C18.5743 10.3294 18.5413 10.7562 18.4778 11.1726C17.4611 10.7977 16.2787 11.1183 15.6023 12.0336L11.569 17.4915C10.7482 18.6022 10.9832 20.1679 12.0939 20.9887C12.4949 21.285 12.9753 21.4547 13.4734 21.476L13.945 21.4961C15.2876 21.5534 16.571 20.94 17.3696 19.8593L19.5687 16.8835C20.3673 15.8028 20.5769 14.3959 20.128 13.1293L19.9703 12.6844C19.9204 12.5436 19.8582 12.4082 19.7848 12.2797C19.9741 11.5151 20.0743 10.7161 20.0743 9.89459C20.0743 4.42996 15.6444 0 10.1798 0C4.71512 0 0.285162 4.42996 0.285162 9.89459C0.285162 10.7164 0.385523 11.5158 0.574967 12.2807C0.501828 12.4089 0.439853 12.5439 0.390081 12.6844L0.23237 13.1293C-0.216573 14.3959 -0.00697452 15.8028 0.791676 16.8835L2.99074 19.8593C3.78939 20.94 5.07274 21.5534 6.41533 21.4961L6.88698 21.476C7.3851 21.4547 7.8655 21.285 8.26647 20.9887C9.37715 20.1679 9.61216 18.6022 8.79138 17.4915L4.75808 12.0336C4.08148 11.118 2.89862 10.7975 1.88177 11.1729C1.81818 10.7564 1.78516 10.3295 1.78516 9.89459ZM3.55174 12.9251C3.22331 12.4807 2.59677 12.3866 2.15234 12.715C1.99189 12.8336 1.87055 12.9974 1.8039 13.1855L1.64619 13.6304C1.36378 14.4272 1.49562 15.3122 1.99802 15.9921L4.19708 18.9678C4.69948 19.6477 5.50679 20.0335 6.35135 19.9975L6.823 19.9773C7.02232 19.9688 7.21455 19.9009 7.375 19.7824C7.81943 19.4539 7.91347 18.8274 7.58504 18.383L3.55174 12.9251ZM16.8086 12.9251C17.1371 12.4807 17.7636 12.3866 18.208 12.715C18.3685 12.8336 18.4898 12.9974 18.5565 13.1855L18.7142 13.6304C18.9966 14.4272 18.8647 15.3122 18.3623 15.9921L16.1633 18.9678C15.6609 19.6477 14.8536 20.0335 14.009 19.9975L13.5374 19.9773C13.338 19.9688 13.1458 19.9009 12.9854 19.7824C12.5409 19.4539 12.4469 18.8274 12.7753 18.383L16.8086 12.9251Z" fill="#595A5B"/>
</svg>
