<svg width="24" height="24" viewBox="0 0 24 24" fill="none" xmlns="http://www.w3.org/2000/svg">
<path d="M9.50021 6.49965C9.50021 5.33298 8.68727 4.16679 5.50021 6.99969C1.00018 10.9996 2.50021 19.9996 3.00021 20.4996C3.50021 20.9996 9.00021 18.4996 9.50021 17.4996C10.0002 16.4996 9.00021 14.9996 10.0002 12.9996M14.5002 6.49963C14.5002 5.33296 15.3131 4.16678 18.5002 6.99967C23.0002 10.9996 21.5002 19.9996 21.0002 20.4996C20.5002 20.9996 15.0002 18.4996 14.5002 17.4996C14.0002 16.4996 15.0002 14.9996 14.0002 12.9996M17.0002 14.4998C17.0002 12.1386 15.4807 10.9615 14.3235 10.1957C11.9366 8.6162 12.0002 5.67529 12.0002 3.13863C12.0002 5.67529 12.0639 8.6162 9.67697 10.1957C8.51974 10.9615 7.00024 12.1386 7.00024 14.4998" stroke="#1339FF" stroke-width="1.5" stroke-linecap="round" stroke-linejoin="round"/>
</svg>
