<svg width="24" height="24" viewBox="0 0 24 24" fill="none" xmlns="http://www.w3.org/2000/svg">
<path d="M10.5 16.75C10.0858 16.75 9.75 17.0858 9.75 17.5C9.75 17.9142 10.0858 18.25 10.5 18.25H13.5C13.9142 18.25 14.25 17.9142 14.25 17.5C14.25 17.0858 13.9142 16.75 13.5 16.75H10.5Z" fill="#747677"/>
<path fill-rule="evenodd" clip-rule="evenodd" d="M9.5 2.75C7.15279 2.75 5.25 4.65279 5.25 7V17C5.25 19.3472 7.15279 21.25 9.5 21.25H14.5C16.8472 21.25 18.75 19.3472 18.75 17V7C18.75 4.65279 16.8472 2.75 14.5 2.75H9.5ZM6.75 7C6.75 5.48122 7.98122 4.25 9.5 4.25H14.5C16.0188 4.25 17.25 5.48122 17.25 7V17C17.25 18.5188 16.0188 19.75 14.5 19.75H9.5C7.98122 19.75 6.75 18.5188 6.75 17V7Z" fill="#747677"/>
</svg>
