<svg width="24" height="25" viewBox="0 0 24 25" fill="none" xmlns="http://www.w3.org/2000/svg">
<path d="M6.70001 18.5H4.15002C2.72002 18.5 2 17.78 2 16.35V4.65002C2 3.22002 2.72002 2.5 4.15002 2.5H8.45001C9.88001 2.5 10.6 3.22002 10.6 4.65002V6.5" stroke="#595A5B" stroke-width="1.5" stroke-miterlimit="10" stroke-linecap="round" stroke-linejoin="round"/>
<path d="M17.3702 8.91998V20.08C17.3702 21.69 16.5702 22.5 14.9602 22.5H9.12018C7.51018 22.5 6.7002 21.69 6.7002 20.08V8.91998C6.7002 7.30998 7.51018 6.5 9.12018 6.5H14.9602C16.5702 6.5 17.3702 7.30998 17.3702 8.91998Z" stroke="#595A5B" stroke-width="1.5" stroke-miterlimit="10" stroke-linecap="round" stroke-linejoin="round"/>
<path d="M13.4004 6.5V4.65002C13.4004 3.22002 14.1204 2.5 15.5504 2.5H19.8503C21.2803 2.5 22.0004 3.22002 22.0004 4.65002V16.35C22.0004 17.78 21.2803 18.5 19.8503 18.5H17.3704" stroke="#595A5B" stroke-width="1.5" stroke-miterlimit="10" stroke-linecap="round" stroke-linejoin="round"/>
<path d="M10 11.5H14" stroke="#595A5B" stroke-width="1.5" stroke-miterlimit="10" stroke-linecap="round" stroke-linejoin="round"/>
<path d="M10 14.5H14" stroke="#595A5B" stroke-width="1.5" stroke-miterlimit="10" stroke-linecap="round" stroke-linejoin="round"/>
<path d="M12 22.5V19.5" stroke="#595A5B" stroke-width="1.5" stroke-miterlimit="10" stroke-linecap="round" stroke-linejoin="round"/>
</svg>
