<svg width="25" height="24" viewBox="0 0 25 24" fill="none" xmlns="http://www.w3.org/2000/svg">
<path d="M12.5 6.75C12.9142 6.75 13.25 7.08579 13.25 7.5V11.25H17C17.4142 11.25 17.75 11.5858 17.75 12C17.75 12.4142 17.4142 12.75 17 12.75H13.25V16.5C13.25 16.9142 12.9142 17.25 12.5 17.25C12.0858 17.25 11.75 16.9142 11.75 16.5V12.75H8C7.58579 12.75 7.25 12.4142 7.25 12C7.25 11.5858 7.58579 11.25 8 11.25H11.75V7.5C11.75 7.08579 12.0858 6.75 12.5 6.75Z" fill="#747677"/>
<path fill-rule="evenodd" clip-rule="evenodd" d="M2.75 6.5C2.75 4.15279 4.65279 2.25 7 2.25H18C20.3472 2.25 22.25 4.15279 22.25 6.5V17.5C22.25 19.8472 20.3472 21.75 18 21.75H7C4.65279 21.75 2.75 19.8472 2.75 17.5V6.5ZM7 3.75C5.48122 3.75 4.25 4.98122 4.25 6.5V17.5C4.25 19.0188 5.48122 20.25 7 20.25H18C19.5188 20.25 20.75 19.0188 20.75 17.5V6.5C20.75 4.98122 19.5188 3.75 18 3.75H7Z" fill="#747677"/>
</svg>
