<svg width="24" height="24" viewBox="0 0 24 24" fill="none" xmlns="http://www.w3.org/2000/svg">
<path d="M9 22H15C20 22 22 20 22 15V9C22 4 20 2 15 2H9C4 2 2 4 2 9V15C2 20 4 22 9 22Z" stroke="#595A5B" stroke-width="1.5" stroke-linecap="round" stroke-linejoin="round"/>
<path d="M15.57 18.5001V14.6001" stroke="#595A5B" stroke-width="1.5" stroke-miterlimit="10" stroke-linecap="round" stroke-linejoin="round"/>
<path d="M15.57 7.45V5.5" stroke="#595A5B" stroke-width="1.5" stroke-miterlimit="10" stroke-linecap="round" stroke-linejoin="round"/>
<path d="M15.57 12.65C17.0059 12.65 18.17 11.4859 18.17 10.05C18.17 8.61401 17.0059 7.44995 15.57 7.44995C14.1341 7.44995 12.97 8.61401 12.97 10.05C12.97 11.4859 14.1341 12.65 15.57 12.65Z" stroke="#595A5B" stroke-width="1.5" stroke-miterlimit="10" stroke-linecap="round" stroke-linejoin="round"/>
<path d="M8.43 18.5V16.55" stroke="#595A5B" stroke-width="1.5" stroke-miterlimit="10" stroke-linecap="round" stroke-linejoin="round"/>
<path d="M8.43 9.4V5.5" stroke="#595A5B" stroke-width="1.5" stroke-miterlimit="10" stroke-linecap="round" stroke-linejoin="round"/>
<path d="M8.43 16.5501C9.86594 16.5501 11.03 15.386 11.03 13.9501C11.03 12.5142 9.86594 11.3501 8.43 11.3501C6.99406 11.3501 5.83 12.5142 5.83 13.9501C5.83 15.386 6.99406 16.5501 8.43 16.5501Z" stroke="#595A5B" stroke-width="1.5" stroke-miterlimit="10" stroke-linecap="round" stroke-linejoin="round"/>
</svg>
