<svg width="56" height="57" viewBox="0 0 56 57" fill="none" xmlns="http://www.w3.org/2000/svg">
<path opacity="0.25" d="M45.6659 19.2114C34.0857 16.1639 21.914 16.1639 10.3338 19.2114L8.13602 19.7897C7.91061 19.849 7.76354 20.0656 7.79148 20.297L10.7407 44.7161C11.2714 49.1109 15.0008 52.417 19.4275 52.417H36.5722C40.9989 52.417 44.7283 49.1109 45.2591 44.7161L48.2082 20.297C48.2362 20.0656 48.0891 19.849 47.8637 19.7897L45.6659 19.2114Z" fill="#ED1F4F"/>
<path d="M5.83301 14.967L8.99751 14.1342C21.4536 10.8563 34.5458 10.8563 47.0018 14.1342L50.1663 14.967" stroke="#ED1F4F" stroke-width="1.5" stroke-linecap="round"/>
<path d="M46.6663 19.6328L43.5456 44.5365C43.1067 48.0386 40.1293 50.6661 36.5999 50.6661H19.3995C15.87 50.6661 12.8926 48.0386 12.4538 44.5365L9.33301 19.6328" stroke="#ED1F4F" stroke-width="1.5" stroke-linecap="round" stroke-linejoin="round"/>
<path d="M35 11.5833L34.7466 10.7386C33.8583 7.77768 31.0913 5.75 28 5.75C24.9087 5.75 22.1417 7.77768 21.2534 10.7386L21 11.5833" stroke="#ED1F4F" stroke-width="1.5" stroke-linecap="round" stroke-linejoin="round"/>
</svg>
