<svg width="16" height="16" viewBox="0 0 16 16" fill="none" xmlns="http://www.w3.org/2000/svg">
<path d="M14.6667 8.00065C14.6667 4.32065 11.68 1.33398 8 1.33398C4.32 1.33398 1.33333 4.32065 1.33333 8.00065C1.33333 11.6807 4.32 14.6673 8 14.6673C11.68 14.6673 14.6667 11.6807 14.6667 8.00065ZM7.78 11.5007C7.50667 11.5007 7.28 11.274 7.28 11.0007C7.28 10.7273 7.50667 10.5007 7.78 10.5007H9.79333L4.64667 5.35398C4.54667 5.25398 4.5 5.12732 4.5 5.00065C4.5 4.87398 4.54667 4.74732 4.64667 4.64732C4.84 4.45398 5.16 4.45398 5.35333 4.64732L10.5 9.79398V7.78065C10.5 7.50732 10.7267 7.28065 11 7.28065C11.2733 7.28065 11.5 7.50732 11.5 7.78065V11.0007C11.5 11.274 11.2733 11.5007 11 11.5007H7.78Z" fill="#1339FF"/>
</svg>
