<svg width="89" height="88" viewBox="0 0 89 88" fill="none" xmlns="http://www.w3.org/2000/svg">
<path d="M55.3966 59.8125H33.6034C29.7057 59.8125 26.099 61.8752 24.1225 65.2346L20.5613 71.2877L20.356 71.5962C26.806 77.2439 35.2533 80.6667 44.5 80.6667C53.7467 80.6667 62.194 77.2439 68.644 71.5962L68.4388 71.2877L64.8775 65.2346C62.901 61.8751 59.2944 59.8125 55.3966 59.8125Z" fill="#DCE0E4"/>
<path d="M81.1667 43.9997C81.1667 64.2501 64.7504 80.6663 44.5 80.6663C24.2496 80.6663 7.83334 64.2501 7.83334 43.9997C7.83334 23.7492 24.2496 7.33301 44.5 7.33301C64.7504 7.33301 81.1667 23.7492 81.1667 43.9997Z" stroke="#A6A9AC" stroke-width="1.5"/>
<path d="M58.25 35.75C58.25 43.3439 52.0939 49.5 44.5 49.5C36.9061 49.5 30.75 43.3439 30.75 35.75C30.75 28.1561 36.9061 22 44.5 22C52.0939 22 58.25 28.1561 58.25 35.75Z" stroke="#A6A9AC" stroke-width="1.5"/>
<path d="M55.3966 59.8125H33.6034C29.7057 59.8125 26.099 61.8752 24.1225 65.2346L20.5613 71.2877L20.356 71.5962C26.806 77.2439 35.2533 80.6667 44.5 80.6667C53.7467 80.6667 62.194 77.2439 68.644 71.5962L68.4388 71.2877L64.8775 65.2346C62.901 61.8751 59.2944 59.8125 55.3966 59.8125Z" stroke="#A6A9AC" stroke-width="1.5" stroke-linecap="round"/>
</svg>
