<svg width="24" height="24" viewBox="0 0 24 24" fill="none" xmlns="http://www.w3.org/2000/svg">
<path d="M7.08203 2.75C5.01096 2.75 3.33203 4.42893 3.33203 6.5C3.33203 7.88066 4.07858 9.08613 5.18643 9.73617C5.54369 9.9458 6.00323 9.82612 6.21286 9.46887C6.42248 9.11161 6.3028 8.65207 5.94555 8.44244C5.2777 8.05057 4.83203 7.32692 4.83203 6.5C4.83203 5.25736 5.83939 4.25 7.08203 4.25C7.41527 4.25 7.72967 4.32196 8.01223 4.45048C8.38927 4.62197 8.83395 4.45533 9.00544 4.07829C9.17693 3.70124 9.0103 3.25657 8.63325 3.08507C8.15957 2.86963 7.63375 2.75 7.08203 2.75Z" fill="#595A5B"/>
<path d="M16.9225 4.25C16.5893 4.25 16.2749 4.32196 15.9923 4.45048C15.6153 4.62197 15.1706 4.45533 14.9991 4.07829C14.8276 3.70124 14.9943 3.25657 15.3713 3.08507C15.845 2.86963 16.3708 2.75 16.9225 2.75C18.9936 2.75 20.6725 4.42893 20.6725 6.5C20.6725 7.88066 19.926 9.08613 18.8181 9.73617C18.4609 9.9458 18.0013 9.82612 17.7917 9.46887C17.5821 9.11161 17.7018 8.65207 18.059 8.44244C18.7269 8.05057 19.1725 7.32692 19.1725 6.5C19.1725 5.25736 18.1652 4.25 16.9225 4.25Z" fill="#595A5B"/>
<path fill-rule="evenodd" clip-rule="evenodd" d="M12 4.25C9.65279 4.25 7.75 6.15279 7.75 8.5C7.75 10.8472 9.65279 12.75 12 12.75C14.3472 12.75 16.25 10.8472 16.25 8.5C16.25 6.15279 14.3472 4.25 12 4.25ZM9.25 8.5C9.25 6.98122 10.4812 5.75 12 5.75C13.5188 5.75 14.75 6.98122 14.75 8.5C14.75 10.0188 13.5188 11.25 12 11.25C10.4812 11.25 9.25 10.0188 9.25 8.5Z" fill="#595A5B"/>
<path fill-rule="evenodd" clip-rule="evenodd" d="M9.0544 13.875C7.90281 13.875 6.8372 14.4844 6.25324 15.477L5.65833 16.4881C5.18575 17.2914 4.97993 18.2344 5.17691 19.0871C5.38341 19.981 6.02322 20.7075 7.06123 20.9716C7.40741 21.0597 7.7781 21.1367 8.16717 21.2028C9.60139 21.4463 11.2854 21.5401 12.9122 21.4844C14.3055 21.4368 15.6568 21.2794 16.773 21.0124L16.7976 21.0064C16.8448 20.995 16.8917 20.9834 16.9381 20.9716C17.9761 20.7075 18.6159 19.981 18.8224 19.0871C19.0194 18.2344 18.8136 17.2914 18.341 16.4881L18.2832 16.39L18.2597 16.3495L17.8189 15.6002L17.7977 15.5648L17.7461 15.477C17.1621 14.4844 16.0965 13.875 14.9449 13.875H9.0544ZM9.19766 15.375C8.48898 15.375 7.83322 15.75 7.47386 16.3608L7.03302 17.1101C6.68585 17.7002 6.59699 18.2941 6.69955 18.7261C6.79194 19.1153 7.0451 19.4266 7.5759 19.5536C8.60757 19.8004 9.87717 19.9449 11.1874 19.987C12.6886 20.0352 14.2432 19.9492 15.5538 19.7288C15.8641 19.6766 16.1606 19.617 16.4396 19.5497C16.9597 19.4204 17.2089 19.1114 17.3003 18.7261C17.401 18.3023 17.3173 17.7227 16.9863 17.1436L16.51 16.3342C16.1474 15.7391 15.5005 15.375 14.8022 15.375H9.19766Z" fill="#595A5B"/>
<path d="M16.75 11.75C16.75 11.3358 17.0858 11 17.5 11H19.0994C20.3396 11 21.4872 11.6563 22.116 12.7252L22.1819 12.8371C22.6795 13.6828 22.8892 14.67 22.6644 15.551C22.4276 16.4787 21.7262 17.198 20.63 17.4188C20.2239 17.5006 19.8285 17.2377 19.7467 16.8317C19.6649 16.4256 19.9277 16.0301 20.3338 15.9483C20.8704 15.8403 21.118 15.5442 21.211 15.18C21.3159 14.769 21.236 14.1875 20.889 13.5977L20.8232 13.4858C20.4638 12.875 19.8081 12.5 19.0994 12.5H17.5C17.0858 12.5 16.75 12.1642 16.75 11.75Z" fill="#595A5B"/>
<path d="M3.18115 13.4858C3.5405 12.875 4.19626 12.5 4.90494 12.5H6.50434C6.91856 12.5 7.25434 12.1642 7.25434 11.75C7.25434 11.3358 6.91856 11 6.50434 11H4.90494C3.66476 11 2.51718 11.6563 1.8883 12.7252L1.82246 12.8371C1.32489 13.6828 1.11513 14.67 1.33996 15.551C1.57674 16.4787 2.27815 17.198 3.37434 17.4188C3.78039 17.5006 4.17588 17.2377 4.25767 16.8317C4.33947 16.4256 4.07661 16.0301 3.67055 15.9483C3.13398 15.8403 2.88632 15.5442 2.79337 15.18C2.68846 14.769 2.7683 14.1875 3.11531 13.5977L3.18115 13.4858Z" fill="#595A5B"/>
</svg>
