<svg width="20" height="15" viewBox="0 0 20 15" fill="none" xmlns="http://www.w3.org/2000/svg">
<path fill-rule="evenodd" clip-rule="evenodd" d="M9.74962 3.50171C7.78825 3.50171 6.19824 5.09171 6.19824 7.05309C6.19824 9.01446 7.78825 10.6045 9.74962 10.6045C11.711 10.6045 13.301 9.01446 13.301 7.05309C13.301 5.09171 11.711 3.50171 9.74962 3.50171ZM7.69824 7.05309C7.69824 5.92014 8.61667 5.00171 9.74962 5.00171C10.8826 5.00171 11.801 5.92014 11.801 7.05309C11.801 8.18603 10.8826 9.10446 9.74962 9.10446C8.61667 9.10446 7.69824 8.18603 7.69824 7.05309Z" fill="#747677"/>
<path fill-rule="evenodd" clip-rule="evenodd" d="M19.0076 5.32403C14.6016 -1.77468 4.89835 -1.77467 0.492377 5.32403C-0.164126 6.38175 -0.164125 7.72444 0.492378 8.78217C4.89836 15.8809 14.6016 15.8809 19.0076 8.78217C19.6641 7.72444 19.6641 6.38175 19.0076 5.32403ZM1.76685 6.11506C5.5861 -0.0383515 13.9139 -0.038352 17.7332 6.11505C18.0889 6.6883 18.0889 7.4179 17.7332 7.99114C13.9139 14.1445 5.58611 14.1446 1.76685 7.99114C1.41105 7.4179 1.41105 6.6883 1.76685 6.11506Z" fill="#747677"/>
</svg>
